<svg width="1200" height="630" viewBox="0 0 1200 630" fill="none" xmlns="http://www.w3.org/2000/svg">
  <rect width="1200" height="630" fill="#F7F1E7"/>
  <circle cx="1027" cy="106" r="128" fill="#DDE6FF"/>
  <circle cx="149" cy="530" r="155" fill="#FFE0B8"/>
  <rect x="74" y="72" width="1052" height="486" rx="40" fill="white"/>
  <rect x="118" y="116" width="472" height="398" rx="34" fill="url(#paint0_linear)"/>
  <rect x="676" y="164" width="340" height="32" rx="16" fill="#FF7D5B"/>
  <rect x="676" y="224" width="356" height="94" rx="24" fill="#1A2340"/>
  <rect x="676" y="348" width="300" height="22" rx="11" fill="#6D778B"/>
  <rect x="676" y="388" width="248" height="22" rx="11" fill="#6D778B"/>
  <rect x="676" y="446" width="218" height="54" rx="27" fill="#4B63FF"/>
  <g filter="url(#filter0_d)">
    <rect x="251" y="147" width="214" height="332" rx="84" transform="rotate(-12 251 147)" fill="url(#paint1_linear)"/>
    <rect x="300" y="178" width="116" height="250" rx="48" transform="rotate(-12 300 178)" fill="url(#paint2_linear)"/>
    <rect x="341" y="206" width="52" height="22" rx="11" transform="rotate(-12 341 206)" fill="url(#paint3_linear)"/>
  </g>
  <defs>
    <filter id="filter0_d" x="173.815" y="105.815" width="365.225" height="451.995" filterUnits="userSpaceOnUse" color-interpolation-filters="sRGB">
      <feFlood flood-opacity="0" result="BackgroundImageFix"/>
      <feColorMatrix in="SourceAlpha" type="matrix" values="0 0 0 0 0 0 0 0 0 0 0 0 0 0 0 0 0 0 127 0" result="hardAlpha"/>
      <feOffset dy="24"/>
      <feGaussianBlur stdDeviation="20"/>
      <feColorMatrix type="matrix" values="0 0 0 0 0.0666667 0 0 0 0 0.0823529 0 0 0 0 0.121569 0 0 0 0.18 0"/>
      <feBlend mode="normal" in2="BackgroundImageFix" result="effect1_dropShadow"/>
      <feBlend mode="normal" in="SourceGraphic" in2="effect1_dropShadow" result="shape"/>
    </filter>
    <linearGradient id="paint0_linear" x1="118" y1="116" x2="590" y2="514" gradientUnits="userSpaceOnUse">
      <stop stop-color="#FFF6EA"/>
      <stop offset="1" stop-color="#FFE6BF"/>
    </linearGradient>
    <linearGradient id="paint1_linear" x1="358" y1="147" x2="358" y2="479" gradientUnits="userSpaceOnUse">
      <stop stop-color="#FFF9F2"/>
      <stop offset="1" stop-color="#F0E5D7"/>
    </linearGradient>
    <linearGradient id="paint2_linear" x1="358" y1="178" x2="358" y2="428" gradientUnits="userSpaceOnUse">
      <stop stop-color="#172242"/>
      <stop offset="1" stop-color="#4D64FF"/>
    </linearGradient>
    <linearGradient id="paint3_linear" x1="367" y1="206" x2="367" y2="228" gradientUnits="userSpaceOnUse">
      <stop stop-color="#FFCE73"/>
      <stop offset="1" stop-color="white"/>
    </linearGradient>
  </defs>
</svg>
