<svg width="1200" height="900" viewBox="0 0 1200 900" fill="none" xmlns="http://www.w3.org/2000/svg">
  <rect width="1200" height="900" rx="48" fill="#F8F3E9"/>
  <circle cx="246" cy="213" r="173" fill="#FFE0BF"/>
  <circle cx="959" cy="175" r="119" fill="#DCE6FF"/>
  <circle cx="983" cy="688" r="165" fill="#FFE8BF"/>
  <rect x="122" y="122" width="956" height="656" rx="36" fill="white"/>
  <rect x="164" y="166" width="490" height="568" rx="30" fill="url(#paint0_linear)"/>
  <rect x="750" y="186" width="246" height="62" rx="22" fill="#FFF2DE"/>
  <rect x="750" y="272" width="208" height="26" rx="13" fill="#1A2340"/>
  <rect x="750" y="314" width="274" height="18" rx="9" fill="#667085"/>
  <rect x="750" y="350" width="242" height="18" rx="9" fill="#667085"/>
  <rect x="750" y="402" width="288" height="84" rx="26" fill="#F4F7FF"/>
  <rect x="776" y="430" width="148" height="14" rx="7" fill="#4B63FF"/>
  <rect x="776" y="454" width="216" height="12" rx="6" fill="#7A869A"/>
  <rect x="750" y="526" width="288" height="84" rx="26" fill="#FFF7E8"/>
  <rect x="776" y="554" width="174" height="14" rx="7" fill="#FF7D5B"/>
  <rect x="776" y="578" width="194" height="12" rx="6" fill="#7A869A"/>
  <g filter="url(#filter0_d)">
    <rect x="290" y="176" width="236" height="432" rx="84" transform="rotate(-18 290 176)" fill="url(#paint1_linear)"/>
    <rect x="347.104" y="212.017" width="116" height="336" rx="48" transform="rotate(-18 347.104 212.017)" fill="url(#paint2_linear)"/>
    <rect x="395.511" y="250.338" width="72" height="32" rx="16" transform="rotate(-18 395.511 250.338)" fill="url(#paint3_linear)"/>
  </g>
  <rect x="752" y="654" width="204" height="52" rx="26" fill="#1A2340"/>
  <path d="M806 680H902" stroke="white" stroke-width="12" stroke-linecap="round"/>
  <defs>
    <filter id="filter0_d" x="182.941" y="112.941" width="434.636" height="558.819" filterUnits="userSpaceOnUse" color-interpolation-filters="sRGB">
      <feFlood flood-opacity="0" result="BackgroundImageFix"/>
      <feColorMatrix in="SourceAlpha" type="matrix" values="0 0 0 0 0 0 0 0 0 0 0 0 0 0 0 0 0 0 127 0" result="hardAlpha"/>
      <feOffset dy="28"/>
      <feGaussianBlur stdDeviation="24"/>
      <feColorMatrix type="matrix" values="0 0 0 0 0.0666667 0 0 0 0 0.0823529 0 0 0 0 0.121569 0 0 0 0.18 0"/>
      <feBlend mode="normal" in2="BackgroundImageFix" result="effect1_dropShadow"/>
      <feBlend mode="normal" in="SourceGraphic" in2="effect1_dropShadow" result="shape"/>
    </filter>
    <linearGradient id="paint0_linear" x1="164" y1="166" x2="654" y2="734" gradientUnits="userSpaceOnUse">
      <stop stop-color="#FFF6EA"/>
      <stop offset="1" stop-color="#FFE8C0"/>
    </linearGradient>
    <linearGradient id="paint1_linear" x1="408" y1="176" x2="408" y2="608" gradientUnits="userSpaceOnUse">
      <stop stop-color="#FFF9F1"/>
      <stop offset="1" stop-color="#F0E5D6"/>
    </linearGradient>
    <linearGradient id="paint2_linear" x1="405.104" y1="212.017" x2="405.104" y2="548.017" gradientUnits="userSpaceOnUse">
      <stop stop-color="#16213F"/>
      <stop offset="1" stop-color="#4562D8"/>
    </linearGradient>
    <linearGradient id="paint3_linear" x1="431.511" y1="250.338" x2="431.511" y2="282.338" gradientUnits="userSpaceOnUse">
      <stop stop-color="#FFCE73"/>
      <stop offset="1" stop-color="white"/>
    </linearGradient>
  </defs>
</svg>
